<mxfile host="app.diagrams.net" modified="2022-07-24T16:17:45.443Z" agent="5.0 (Macintosh; Intel Mac OS X 10_15_7) AppleWebKit/537.36 (KHTML, like Gecko) Chrome/103.0.0.0 Safari/537.36" etag="jVi4EU7QdNNKsnL1h0aI" version="20.1.1" type="github">
  <diagram id="e_Nu4UiDqZK5FSXZQxsC" name="Page-1">
    <mxGraphModel dx="1811" dy="588" grid="1" gridSize="10" guides="1" tooltips="1" connect="1" arrows="1" fold="1" page="1" pageScale="1" pageWidth="850" pageHeight="1100" math="0" shadow="0">
      <root>
        <mxCell id="0" />
        <mxCell id="1" parent="0" />
        <mxCell id="sh00X7Pk_uNUSvd-SBW9-1" value="Platonic&lt;br&gt;Process" style="whiteSpace=wrap;html=1;aspect=fixed;fillColor=#dae8fc;strokeColor=#6c8ebf;fontStyle=2" parent="1" vertex="1">
          <mxGeometry x="435.75" y="38" width="161" height="161" as="geometry" />
        </mxCell>
        <mxCell id="sh00X7Pk_uNUSvd-SBW9-2" value="Platonic&lt;br&gt;Neutral" style="whiteSpace=wrap;html=1;aspect=fixed;fillColor=#e1d5e7;strokeColor=#9673a6;labelPosition=center;verticalLabelPosition=middle;align=center;verticalAlign=middle;fontStyle=2" parent="1" vertex="1">
          <mxGeometry x="274.75" y="38" width="161" height="161" as="geometry" />
        </mxCell>
        <mxCell id="sh00X7Pk_uNUSvd-SBW9-3" value="Platonic&lt;br&gt;Substance" style="whiteSpace=wrap;html=1;aspect=fixed;fillColor=#f8cecc;strokeColor=#b85450;fontStyle=2" parent="1" vertex="1">
          <mxGeometry x="113.99999999999999" y="38" width="161" height="161" as="geometry" />
        </mxCell>
        <mxCell id="sh00X7Pk_uNUSvd-SBW9-4" value="Neutral&lt;br&gt;Process" style="whiteSpace=wrap;html=1;aspect=fixed;fillColor=#d5e8d4;strokeColor=#82b366;fontStyle=2" parent="1" vertex="1">
          <mxGeometry x="435.75" y="199" width="161" height="161" as="geometry" />
        </mxCell>
        <mxCell id="sh00X7Pk_uNUSvd-SBW9-5" value="" style="whiteSpace=wrap;html=1;aspect=fixed;fillColor=#f5f5f5;strokeColor=#666666;fontColor=#333333;" parent="1" vertex="1">
          <mxGeometry x="274.75" y="199" width="161" height="161" as="geometry" />
        </mxCell>
        <mxCell id="sh00X7Pk_uNUSvd-SBW9-6" value="Neutral&lt;br&gt;Substance" style="whiteSpace=wrap;html=1;aspect=fixed;fillColor=#ffe6cc;strokeColor=#d79b00;fontStyle=2" parent="1" vertex="1">
          <mxGeometry x="114" y="199" width="161" height="161" as="geometry" />
        </mxCell>
        <mxCell id="sh00X7Pk_uNUSvd-SBW9-7" value="Pragmaticistic&lt;br&gt;Process" style="whiteSpace=wrap;html=1;aspect=fixed;fontStyle=2" parent="1" vertex="1">
          <mxGeometry x="435.75" y="360" width="161" height="161" as="geometry" />
        </mxCell>
        <mxCell id="sh00X7Pk_uNUSvd-SBW9-8" value="Pragmaticistic&lt;br&gt;Neutral" style="whiteSpace=wrap;html=1;aspect=fixed;fillColor=#d5e8d4;strokeColor=#82b366;fontStyle=2" parent="1" vertex="1">
          <mxGeometry x="274.75" y="360" width="161" height="161" as="geometry" />
        </mxCell>
        <mxCell id="sh00X7Pk_uNUSvd-SBW9-9" value="Pragmaticistic&lt;br&gt;Substance" style="whiteSpace=wrap;html=1;aspect=fixed;fillColor=#fff2cc;strokeColor=#d6b656;fontStyle=2" parent="1" vertex="1">
          <mxGeometry x="114" y="360" width="161" height="161" as="geometry" />
        </mxCell>
        <mxCell id="trqewR6XDROr1OXFbvpF-8" value="Pragmaticistic" style="text;html=1;align=center;verticalAlign=middle;resizable=0;points=[];autosize=1;fontSize=20;" parent="1" vertex="1">
          <mxGeometry x="280" y="520" width="150" height="40" as="geometry" />
        </mxCell>
        <mxCell id="trqewR6XDROr1OXFbvpF-9" value="Platonic" style="text;html=1;align=center;verticalAlign=middle;resizable=0;points=[];autosize=1;fontSize=20;" parent="1" vertex="1">
          <mxGeometry x="319" width="90" height="40" as="geometry" />
        </mxCell>
        <mxCell id="trqewR6XDROr1OXFbvpF-10" value="Process&lt;br&gt;Metaphysics" style="text;html=1;align=center;verticalAlign=middle;resizable=0;points=[];autosize=1;fontSize=20;" parent="1" vertex="1">
          <mxGeometry x="590" y="250" width="130" height="60" as="geometry" />
        </mxCell>
        <mxCell id="trqewR6XDROr1OXFbvpF-11" value="Substance&lt;br&gt;Metaphysics" style="text;html=1;align=center;verticalAlign=middle;resizable=0;points=[];autosize=1;fontSize=20;" parent="1" vertex="1">
          <mxGeometry x="-20" y="250" width="130" height="60" as="geometry" />
        </mxCell>
        <mxCell id="PCBCEUplg-xkWiTj8X5o-1" value="Mechanical" style="text;html=1;align=center;verticalAlign=middle;resizable=0;points=[];autosize=1;" parent="1" vertex="1">
          <mxGeometry x="34" y="18" width="80" height="20" as="geometry" />
        </mxCell>
        <mxCell id="PCBCEUplg-xkWiTj8X5o-2" value="Systematic" style="text;html=1;align=center;verticalAlign=middle;resizable=0;points=[];autosize=1;" parent="1" vertex="1">
          <mxGeometry x="596.75" y="18" width="70" height="20" as="geometry" />
        </mxCell>
        <mxCell id="PCBCEUplg-xkWiTj8X5o-3" value="Biological" style="text;html=1;align=center;verticalAlign=middle;resizable=0;points=[];autosize=1;" parent="1" vertex="1">
          <mxGeometry x="596.75" y="521" width="70" height="20" as="geometry" />
        </mxCell>
        <mxCell id="PCBCEUplg-xkWiTj8X5o-4" value="Behavioral" style="text;html=1;align=center;verticalAlign=middle;resizable=0;points=[];autosize=1;" parent="1" vertex="1">
          <mxGeometry x="44" y="521" width="70" height="20" as="geometry" />
        </mxCell>
        <mxCell id="PCBCEUplg-xkWiTj8X5o-8" style="edgeStyle=orthogonalEdgeStyle;rounded=0;orthogonalLoop=1;jettySize=auto;html=1;exitX=0.5;exitY=1;exitDx=0;exitDy=0;" parent="1" edge="1">
          <mxGeometry relative="1" as="geometry">
            <mxPoint x="345" y="390" as="sourcePoint" />
            <mxPoint x="345" y="390" as="targetPoint" />
          </mxGeometry>
        </mxCell>
        <mxCell id="yZrjjNsprhIIdJXyeB74-1" value="Cybernetics" style="shape=mxgraph.bpmn.shape;html=1;verticalLabelPosition=bottom;labelBackgroundColor=#ffffff;verticalAlign=top;align=center;perimeter=ellipsePerimeter;outlineConnect=0;outline=end;symbol=terminate;rotation=0;fontStyle=1;sketch=1;" parent="1" vertex="1">
          <mxGeometry x="500" y="140" width="20" height="20" as="geometry" />
        </mxCell>
        <mxCell id="yZrjjNsprhIIdJXyeB74-2" value="GOFAI" style="shape=mxgraph.bpmn.shape;html=1;verticalLabelPosition=bottom;labelBackgroundColor=#ffffff;verticalAlign=top;align=center;perimeter=ellipsePerimeter;outlineConnect=0;outline=end;symbol=terminate;rotation=0;fontStyle=1;sketch=1;" parent="1" vertex="1">
          <mxGeometry x="184.5" y="140" width="20" height="20" as="geometry" />
        </mxCell>
        <mxCell id="yZrjjNsprhIIdJXyeB74-3" value="Connectionists" style="shape=mxgraph.bpmn.shape;html=1;verticalLabelPosition=bottom;labelBackgroundColor=#ffffff;verticalAlign=top;align=center;perimeter=ellipsePerimeter;outlineConnect=0;outline=end;symbol=terminate;rotation=0;fontStyle=1;sketch=1;" parent="1" vertex="1">
          <mxGeometry x="500" y="310" width="20" height="20" as="geometry" />
        </mxCell>
        <mxCell id="yZrjjNsprhIIdJXyeB74-6" value="" style="endArrow=classic;html=1;entryX=1;entryY=0.5;entryDx=0;entryDy=0;exitX=0;exitY=0.5;exitDx=0;exitDy=0;sketch=1;" parent="1" source="yZrjjNsprhIIdJXyeB74-1" target="yZrjjNsprhIIdJXyeB74-2" edge="1">
          <mxGeometry width="50" height="50" relative="1" as="geometry">
            <mxPoint x="280" y="340" as="sourcePoint" />
            <mxPoint x="330" y="290" as="targetPoint" />
          </mxGeometry>
        </mxCell>
        <mxCell id="yZrjjNsprhIIdJXyeB74-7" value="" style="endArrow=classic;html=1;exitX=0.5;exitY=1;exitDx=0;exitDy=0;sketch=1;" parent="1" source="yZrjjNsprhIIdJXyeB74-1" edge="1">
          <mxGeometry width="50" height="50" relative="1" as="geometry">
            <mxPoint x="280" y="340" as="sourcePoint" />
            <mxPoint x="510" y="313" as="targetPoint" />
          </mxGeometry>
        </mxCell>
        <mxCell id="yZrjjNsprhIIdJXyeB74-8" value="1957 Artificial Intelligence" style="text;html=1;strokeColor=none;fillColor=none;align=center;verticalAlign=middle;whiteSpace=wrap;rounded=0;fontStyle=2" parent="1" vertex="1">
          <mxGeometry x="235" y="130" width="40" height="50" as="geometry" />
        </mxCell>
        <mxCell id="yZrjjNsprhIIdJXyeB74-9" value="&lt;i&gt;1980 Neural Networks&lt;/i&gt;" style="text;html=1;strokeColor=none;fillColor=none;align=center;verticalAlign=middle;whiteSpace=wrap;rounded=0;" parent="1" vertex="1">
          <mxGeometry x="520" y="220" width="40" height="20" as="geometry" />
        </mxCell>
        <mxCell id="yZrjjNsprhIIdJXyeB74-11" value="Conversational&lt;br&gt;Cognition" style="shape=mxgraph.bpmn.shape;html=1;verticalLabelPosition=bottom;labelBackgroundColor=#ffffff;verticalAlign=top;align=center;perimeter=ellipsePerimeter;outlineConnect=0;outline=end;symbol=terminate;rotation=0;fontStyle=1;sketch=1;" parent="1" vertex="1">
          <mxGeometry x="184.5" y="470" width="20" height="20" as="geometry" />
        </mxCell>
        <mxCell id="yZrjjNsprhIIdJXyeB74-13" value="Self Play" style="shape=mxgraph.bpmn.shape;html=1;verticalLabelPosition=bottom;labelBackgroundColor=#ffffff;verticalAlign=top;align=center;perimeter=ellipsePerimeter;outlineConnect=0;outline=end;symbol=terminate;rotation=0;fontStyle=1;sketch=1;" parent="1" vertex="1">
          <mxGeometry x="460" y="390" width="20" height="20" as="geometry" />
        </mxCell>
        <mxCell id="yZrjjNsprhIIdJXyeB74-15" value="Co-Evolution" style="shape=mxgraph.bpmn.shape;html=1;verticalLabelPosition=bottom;labelBackgroundColor=#ffffff;verticalAlign=top;align=center;perimeter=ellipsePerimeter;outlineConnect=0;outline=end;symbol=terminate;rotation=0;fontStyle=1;sketch=1;" parent="1" vertex="1">
          <mxGeometry x="440" y="470" width="20" height="20" as="geometry" />
        </mxCell>
        <mxCell id="yZrjjNsprhIIdJXyeB74-17" value="Attention&lt;br&gt;Models" style="shape=mxgraph.bpmn.shape;html=1;verticalLabelPosition=bottom;labelBackgroundColor=#ffffff;verticalAlign=top;align=center;perimeter=ellipsePerimeter;outlineConnect=0;outline=end;symbol=terminate;rotation=0;fontStyle=1;sketch=1;" parent="1" vertex="1">
          <mxGeometry x="450" y="230" width="20" height="20" as="geometry" />
        </mxCell>
        <mxCell id="yZrjjNsprhIIdJXyeB74-19" value="" style="endArrow=classic;html=1;exitX=0.145;exitY=0.855;exitDx=0;exitDy=0;exitPerimeter=0;entryX=0.5;entryY=0;entryDx=0;entryDy=0;sketch=1;" parent="1" source="yZrjjNsprhIIdJXyeB74-17" target="qtk563ioWSZDDJOSvS5W-2" edge="1">
          <mxGeometry width="50" height="50" relative="1" as="geometry">
            <mxPoint y="530" as="sourcePoint" />
            <mxPoint x="50" y="480" as="targetPoint" />
          </mxGeometry>
        </mxCell>
        <mxCell id="yZrjjNsprhIIdJXyeB74-20" value="" style="endArrow=classic;html=1;exitX=0.145;exitY=0.145;exitDx=0;exitDy=0;entryX=0.855;entryY=0.855;entryDx=0;entryDy=0;entryPerimeter=0;exitPerimeter=0;sketch=1;" parent="1" source="yZrjjNsprhIIdJXyeB74-15" target="qtk563ioWSZDDJOSvS5W-2" edge="1">
          <mxGeometry width="50" height="50" relative="1" as="geometry">
            <mxPoint x="290" y="370" as="sourcePoint" />
            <mxPoint x="340" y="320" as="targetPoint" />
          </mxGeometry>
        </mxCell>
        <mxCell id="yZrjjNsprhIIdJXyeB74-23" value="" style="endArrow=classic;html=1;exitX=0.5;exitY=1;exitDx=0;exitDy=0;sketch=1;" parent="1" source="yZrjjNsprhIIdJXyeB74-3" target="yZrjjNsprhIIdJXyeB74-17" edge="1">
          <mxGeometry width="50" height="50" relative="1" as="geometry">
            <mxPoint x="50" y="520" as="sourcePoint" />
            <mxPoint x="100" y="470" as="targetPoint" />
          </mxGeometry>
        </mxCell>
        <mxCell id="yZrjjNsprhIIdJXyeB74-24" value="" style="endArrow=classic;html=1;entryX=0.855;entryY=0.145;entryDx=0;entryDy=0;entryPerimeter=0;sketch=1;" parent="1" target="yZrjjNsprhIIdJXyeB74-13" edge="1">
          <mxGeometry width="50" height="50" relative="1" as="geometry">
            <mxPoint x="510" y="320" as="sourcePoint" />
            <mxPoint x="340" y="320" as="targetPoint" />
          </mxGeometry>
        </mxCell>
        <mxCell id="yZrjjNsprhIIdJXyeB74-25" value="" style="endArrow=classic;html=1;exitX=0.5;exitY=1;exitDx=0;exitDy=0;entryX=0.5;entryY=0;entryDx=0;entryDy=0;sketch=1;" parent="1" source="yZrjjNsprhIIdJXyeB74-13" target="yZrjjNsprhIIdJXyeB74-15" edge="1">
          <mxGeometry width="50" height="50" relative="1" as="geometry">
            <mxPoint x="-10" y="580" as="sourcePoint" />
            <mxPoint x="40" y="530" as="targetPoint" />
          </mxGeometry>
        </mxCell>
        <mxCell id="qtk563ioWSZDDJOSvS5W-2" value="Shared&lt;br&gt;Intentionality" style="shape=mxgraph.bpmn.shape;html=1;verticalLabelPosition=bottom;labelBackgroundColor=#ffffff;verticalAlign=top;align=center;perimeter=ellipsePerimeter;outlineConnect=0;outline=end;symbol=terminate;rotation=0;fontStyle=1;sketch=1;" parent="1" vertex="1">
          <mxGeometry x="315" y="370" width="20" height="20" as="geometry" />
        </mxCell>
        <mxCell id="qtk563ioWSZDDJOSvS5W-5" value="" style="endArrow=classic;html=1;exitX=0.145;exitY=0.855;exitDx=0;exitDy=0;exitPerimeter=0;entryX=1;entryY=0.5;entryDx=0;entryDy=0;sketch=1;" parent="1" source="qtk563ioWSZDDJOSvS5W-2" target="yZrjjNsprhIIdJXyeB74-11" edge="1">
          <mxGeometry width="50" height="50" relative="1" as="geometry">
            <mxPoint x="280" y="390" as="sourcePoint" />
            <mxPoint x="330" y="340" as="targetPoint" />
          </mxGeometry>
        </mxCell>
        <mxCell id="qtk563ioWSZDDJOSvS5W-6" value="Counterfactual&lt;br&gt;Reasoning" style="shape=mxgraph.bpmn.shape;html=1;verticalLabelPosition=bottom;labelBackgroundColor=#ffffff;verticalAlign=top;align=center;perimeter=ellipsePerimeter;outlineConnect=0;outline=end;symbol=terminate;rotation=0;fontStyle=1;sketch=1;" parent="1" vertex="1">
          <mxGeometry x="335" y="160" width="20" height="20" as="geometry" />
        </mxCell>
        <mxCell id="qtk563ioWSZDDJOSvS5W-9" value="" style="endArrow=classic;html=1;entryX=0.855;entryY=0.855;entryDx=0;entryDy=0;entryPerimeter=0;exitX=0.145;exitY=0.145;exitDx=0;exitDy=0;exitPerimeter=0;sketch=1;" parent="1" source="yZrjjNsprhIIdJXyeB74-13" target="qtk563ioWSZDDJOSvS5W-6" edge="1">
          <mxGeometry width="50" height="50" relative="1" as="geometry">
            <mxPoint x="30" y="450" as="sourcePoint" />
            <mxPoint x="20" y="490" as="targetPoint" />
          </mxGeometry>
        </mxCell>
        <mxCell id="qtk563ioWSZDDJOSvS5W-10" value="" style="endArrow=classic;html=1;exitX=0.5;exitY=1;exitDx=0;exitDy=0;entryX=1;entryY=0.5;entryDx=0;entryDy=0;sketch=1;" parent="1" source="qtk563ioWSZDDJOSvS5W-6" target="yZrjjNsprhIIdJXyeB74-11" edge="1">
          <mxGeometry width="50" height="50" relative="1" as="geometry">
            <mxPoint x="280" y="380" as="sourcePoint" />
            <mxPoint x="330" y="330" as="targetPoint" />
          </mxGeometry>
        </mxCell>
      </root>
    </mxGraphModel>
  </diagram>
</mxfile>
